<svg xmlns="http://www.w3.org/2000/svg" width="1450" height="512" viewBox="0 0 1450 512">
  <g id="Group_31" data-name="Group 31" transform="translate(2979 -1680)">
    <path id="Path_1" data-name="Path 1" d="M68.374-103.242H32.434v35.135H19.712V-147.6H32.434v33.227h35.94V-147.6H81.1v79.491H68.374Zm35.94-38.474a45.817,45.817,0,0,1,14.074-5.405,78.653,78.653,0,0,1,16.777-1.749q8.269,0,13.279,2.226a18.5,18.5,0,0,1,7.633,5.8,19.868,19.868,0,0,1,3.5,7.87,42.9,42.9,0,0,1,.875,8.585q0,9.539-.477,18.6t-.477,17.17q0,5.882.477,11.129a52.631,52.631,0,0,0,1.749,9.7h-9.382L149-78.918h-.8a26.46,26.46,0,0,1-3.578,4.372,22.936,22.936,0,0,1-5.168,3.816,32.643,32.643,0,0,1-7,2.782,33.685,33.685,0,0,1-9.064,1.113,27.49,27.49,0,0,1-9.462-1.59,22.1,22.1,0,0,1-7.554-4.531,21.186,21.186,0,0,1-5.009-7.075,22.959,22.959,0,0,1-1.829-9.38A22.069,22.069,0,0,1,102.4-101.1a20.639,20.639,0,0,1,8.031-7.472,39.691,39.691,0,0,1,12.4-3.975,98.647,98.647,0,0,1,15.982-1.192h4.373a30.908,30.908,0,0,1,4.373.318q.477-4.769.477-8.585,0-8.744-3.5-12.242t-12.722-3.5a44.571,44.571,0,0,0-5.8.409q-3.1.409-6.361,1.145a52.016,52.016,0,0,0-6.2,1.8,30.9,30.9,0,0,0-5.168,2.371Zm22.582,63.752a24.584,24.584,0,0,0,7.951-1.192,23.009,23.009,0,0,0,6.043-3.021,19.244,19.244,0,0,0,4.214-4.054,18.058,18.058,0,0,0,2.465-4.293v-13.2q-2.226-.159-4.532-.238t-4.532-.079a81.633,81.633,0,0,0-9.621.556,30.465,30.465,0,0,0-8.269,2.067,14.526,14.526,0,0,0-5.725,4.134,10.075,10.075,0,0,0-2.147,6.6,11.748,11.748,0,0,0,3.976,9.141A14.638,14.638,0,0,0,126.895-77.964Zm108.3-58.505H210.224v68.362H197.5v-68.362H172.535V-147.6h62.656ZM271.2-96.088l4.47,15.262h.8l3.511-15.421L295.461-147.6h12.722L284.647-76.215q-2.7,7.79-5.327,15.1a88.129,88.129,0,0,1-5.8,13.036,33.069,33.069,0,0,1-7.156,9.141,13.72,13.72,0,0,1-9.223,3.418,23.709,23.709,0,0,1-9.382-1.59l2.226-10.97a11.061,11.061,0,0,0,3.976.795q4.453,0,8.587-4.69t6.838-16.137L237.417-147.6h14.63Zm50.659-51.51h8.746l2.385,9.539h.636a24.325,24.325,0,0,1,9.462-8.506,28.977,28.977,0,0,1,13.279-2.941q15.9,0,23.695,9.38t7.792,30.683A57.924,57.924,0,0,1,385.23-91.4,39.412,39.412,0,0,1,377.836-77.8a32.415,32.415,0,0,1-11.529,8.585A36.425,36.425,0,0,1,351.279-66.2a47.557,47.557,0,0,1-9.3-.715,37.75,37.75,0,0,1-7.395-2.464v33.068H321.859Zm32.123,9.221q-8.11,0-12.8,4.213t-6.6,12.8v39.427a21.252,21.252,0,0,0,6.52,3.418,32.162,32.162,0,0,0,9.7,1.192q10.973,0,17.413-8.188t6.44-24.086a58.037,58.037,0,0,0-1.113-11.844,25.943,25.943,0,0,0-3.578-9.062,17.14,17.14,0,0,0-6.361-5.8A20.342,20.342,0,0,0,353.982-138.377Zm52.637-3.339a45.817,45.817,0,0,1,14.074-5.405,78.653,78.653,0,0,1,16.777-1.749q8.269,0,13.279,2.226a18.505,18.505,0,0,1,7.633,5.8,19.867,19.867,0,0,1,3.5,7.87,42.9,42.9,0,0,1,.875,8.585q0,9.539-.477,18.6t-.477,17.17q0,5.882.477,11.129a52.628,52.628,0,0,0,1.749,9.7h-9.382l-3.34-11.129h-.8a26.459,26.459,0,0,1-3.578,4.372,22.936,22.936,0,0,1-5.168,3.816,32.643,32.643,0,0,1-7,2.782,33.685,33.685,0,0,1-9.064,1.113,27.49,27.49,0,0,1-9.462-1.59,22.1,22.1,0,0,1-7.554-4.531,21.187,21.187,0,0,1-5.009-7.075,22.959,22.959,0,0,1-1.829-9.38,22.069,22.069,0,0,1,2.862-11.685,20.64,20.64,0,0,1,8.031-7.472,39.691,39.691,0,0,1,12.4-3.975,98.647,98.647,0,0,1,15.982-1.192H445.5a30.908,30.908,0,0,1,4.373.318q.477-4.769.477-8.585,0-8.744-3.5-12.242t-12.722-3.5a44.571,44.571,0,0,0-5.8.409q-3.1.409-6.361,1.145a52.013,52.013,0,0,0-6.2,1.8,30.9,30.9,0,0,0-5.168,2.371ZM429.2-77.964a24.584,24.584,0,0,0,7.951-1.192,23.009,23.009,0,0,0,6.043-3.021,19.246,19.246,0,0,0,4.214-4.054,18.059,18.059,0,0,0,2.465-4.293v-13.2q-2.226-.159-4.532-.238t-4.532-.079a81.633,81.633,0,0,0-9.621.556,30.465,30.465,0,0,0-8.269,2.067,14.526,14.526,0,0,0-5.725,4.134,10.075,10.075,0,0,0-2.147,6.6,11.748,11.748,0,0,0,3.976,9.141A14.638,14.638,0,0,0,429.2-77.964Zm100.345-58.505H506.487q-.477,6.677-.954,14.388T504.1-106.66q-.954,7.711-2.544,14.785a63.9,63.9,0,0,1-4.055,12.48,26.258,26.258,0,0,1-6.043,8.664,12.208,12.208,0,0,1-8.508,3.259,37.656,37.656,0,0,1-5.248-.318,14.547,14.547,0,0,1-3.976-1.113l1.908-10.652a13,13,0,0,0,4.135.636,7.7,7.7,0,0,0,5.725-2.7q2.544-2.7,4.453-10.254a146.443,146.443,0,0,0,3.181-20.906q1.272-13.354,1.749-34.817h47.389v79.491H529.545Zm49.934,57.233a70.588,70.588,0,0,0,11.291.954q10.019,0,14.789-3.9t4.771-11.049a13.474,13.474,0,0,0-4.612-10.493q-4.612-4.134-14.471-4.134-2.7,0-5.884.159a25.3,25.3,0,0,0-5.884.954Zm0-38q3.817-.636,7.315-.874t6.679-.238a46.45,46.45,0,0,1,13.994,1.828,25.473,25.473,0,0,1,9.3,5.008,18.383,18.383,0,0,1,5.168,7.552,27,27,0,0,1,1.59,9.3q0,14.467-8.667,20.986t-26.955,6.518q-10.177,0-21.15-.954V-147.6h12.722Zm109.727,13.99h-35.94v35.135H640.545V-147.6h12.722v33.227h35.94V-147.6h12.722v79.491H689.206ZM739.14-79.236a70.59,70.59,0,0,0,11.291.954q10.019,0,13.994-3.9T768.4-93.226a14.688,14.688,0,0,0-3.9-10.493q-3.9-4.134-13.6-4.134-2.7,0-5.884.159a25.3,25.3,0,0,0-5.884.954Zm0-38q3.817-.636,7.315-.874t6.679-.238a43.488,43.488,0,0,1,13.6,1.828,23.241,23.241,0,0,1,8.826,5.008,17.341,17.341,0,0,1,4.691,7.552,31.322,31.322,0,0,1,1.352,9.3q0,14.467-8.031,20.986t-26,6.518q-10.178,0-21.15-.954V-147.6H739.14ZM794.163-147.6h12.722v79.491H794.163Zm86.827,32.432.477-9.857h-.477l-6.52,10.175L838.689-68.107h-7.315V-147.6H844.1v48.489l-.477,9.38h.636l6.2-9.857L886.238-147.6h7.474v79.491H880.99Zm-31.328-64.546q1.59,7.313,5.486,10.175a14.778,14.778,0,0,0,8.985,2.862A14.587,14.587,0,0,0,873.2-169.7q3.976-3.021,5.407-9.857l9.542,3.021q-1.431,9.221-8.19,14.149a26.648,26.648,0,0,1-16.141,4.928,33.19,33.19,0,0,1-8.508-1.113,25.028,25.028,0,0,1-7.554-3.339,21.008,21.008,0,0,1-5.725-5.723,20.432,20.432,0,0,1-3.18-8.267ZM67.578-12.265H32.434V56.1H19.712V-23.393H80.3V56.1H67.578Zm32.759,28.617q0-20.191,8.985-30.922T135.164-25.3a37.822,37.822,0,0,1,15.5,2.941,28.13,28.13,0,0,1,10.893,8.426,36.428,36.428,0,0,1,6.361,13.2,65.948,65.948,0,0,1,2.067,17.091q0,20.191-8.985,30.922T135.164,58.005a37.822,37.822,0,0,1-15.5-2.941,28.131,28.131,0,0,1-10.893-8.426,36.428,36.428,0,0,1-6.361-13.2A65.947,65.947,0,0,1,100.338,16.352Zm13.2,0a55.24,55.24,0,0,0,1.193,11.606,30.585,30.585,0,0,0,3.737,9.7,20.114,20.114,0,0,0,6.679,6.677,18.761,18.761,0,0,0,10.019,2.544q21.627.159,21.627-30.524A56.029,56.029,0,0,0,155.6,4.587a30.585,30.585,0,0,0-3.737-9.7,19.406,19.406,0,0,0-6.679-6.6,19.234,19.234,0,0,0-10.019-2.464Q113.537-14.331,113.537,16.352Zm93.825-.954L180.645-23.393h15.584L211.337-1.454l4.453,9.062L220.4-1.454l15.425-21.939h14.312L223.264,14.762,251.729,56.1H236.622L219.765,31.932l-4.771-9.539-4.93,9.539L192.89,56.1H178.737Zm53.114.954q0-20.191,8.985-30.922T295.3-25.3a37.821,37.821,0,0,1,15.5,2.941A28.13,28.13,0,0,1,321.7-13.934a36.428,36.428,0,0,1,6.361,13.2,65.947,65.947,0,0,1,2.067,17.091q0,20.191-8.985,30.922T295.3,58.005a37.821,37.821,0,0,1-15.5-2.941A28.13,28.13,0,0,1,268.9,46.638a36.428,36.428,0,0,1-6.361-13.2A65.948,65.948,0,0,1,260.475,16.352Zm13.2,0a55.239,55.239,0,0,0,1.193,11.606,30.585,30.585,0,0,0,3.737,9.7,20.114,20.114,0,0,0,6.679,6.677A18.761,18.761,0,0,0,295.3,46.876q21.627.159,21.627-30.524a56.03,56.03,0,0,0-1.193-11.765A30.585,30.585,0,0,0,312-5.111a19.406,19.406,0,0,0-6.679-6.6A19.234,19.234,0,0,0,295.3-14.173Q273.675-14.331,273.674,16.352ZM419.5,76.288h-8.587L408.527,56.1H348.734l-2.385,20.191h-8.587V44.969h9.382a40.282,40.282,0,0,0,3.34-6.28,73.988,73.988,0,0,0,4.055-12.719,184.955,184.955,0,0,0,3.5-20.35,282.917,282.917,0,0,0,1.829-29.014h48.025V44.969H419.5ZM395.169,44.969V-12.265H371.316Q371-5.587,370.2,2.282t-2.147,15.739a130.235,130.235,0,0,1-3.419,14.865,65.226,65.226,0,0,1-4.771,12.083Z" transform="translate(-2422.712 1987.712)" fill="#fff"/>
    <g id="Group_28" data-name="Group 28" transform="translate(2023 801)">
      <g id="small" transform="translate(-5002 879)">
        <path id="Фигура_1" data-name="Фигура 1" d="M115.651,414.928l-10.537-3.856-7.71-4.628-7.453-5.4-6.425-4.37-1.285-3.6v-4.628l1.542-4.628,1.542-.771,2.827-.771,3.855.771,3.341.514,5.4-1.8.257-4.627,1.285-6.17.771-7.455-.257-5.656-2.57-7.2-1.542-7.97-1.028-12.083-1.028-9.255-2.056-9.512-2.056-10.283L87.895,294.1s-2.344-8.407-2.57-9A30.252,30.252,0,0,0,82.5,281.76H79.671l-9-1.8-5.14-2.828-1.542,7.455-.514,5.4-1.285,4.37-1.028,4.628L60.91,303.1l2.313,12.6.514,13.625-.771,11.569-2.827,9.769-.514,6.17-2.056,13.882-.257,7.712-.514,8.484-.257,7.2.514,5.656-2.827,6.17-1.542.257H48.573L44.2,406.7l-3.6-.514-6.682-2.057L29.812,401.3s-2.725-2.816-2.57-3.342c.162-.551,2.465-3.618,1.542-3.6l1.285-3.342,2.57.514,2.57-5.913-.771-10.54-.257-14.4-1.8-17.224-.257-8.741s.53-11.1.257-11.569-1.194-9.376-1.285-10.026,1.028-8.484,1.028-8.484-1.775-5.745-1.8-6.17-.514-5.656-.514-5.656l.257-7.712L20.3,283.046l.514-5.4-.514-6.17v-7.97l.514-8.741-.257-7.455-.514-4.113-.771-5.142.514-6.427v-4.37l.514-4.627L21.331,218l-1.028-.771-.257-2.828.771-3.085v-2.314l-1.028-.257-.257,3.342-1.028,3.6-.771,3.085.771,2.571-.257,5.142-1.028,3.085.514,4.628-.257,4.113H14.649l-1.8-1.543L11.822,234.2l.257-3.342L9.252,230.6v4.628l.771,3.856,2.313,3.342,3.6,1.285.257,1.8.257,3.085-5.14.257-3.6-2.314L4.883,245,2.57,239.342.771,232.4l.514-3.342.514-7.712L.771,218.519v-4.37L0,210.035l1.028-5.656,2.056-1.8-.514-3.342v-4.885l.514-4.37v-5.656l2.056-7.2L6.425,168.9,9.509,153.22l-1.028-.257-.257-1.8v-5.913l.514-3.856L9,137.8l1.028-5.656.514-6.941,1.028-6.941,1.8-8.741,1.285-5.4v-4.37l.257-4.885-.257-5.656,1.285-3.342,1.542-4.628,2.313-3.856,2.056-3.342,2.57-2.057,2.57-2.571,1.8-2.828,1.8-2.828L32.9,60.671l2.313-3.342,1.8-2.828.771-1.8V50.9l-.514-3.085-.514-2.057-.514-2.314L34.7,41.133,31.868,40.1,31.1,37.791l-1.028-2.314.257-2.314-1.028-1.8-.514-2.828.514-1.8L28.27,24.68l1.8-.514-.257-3.856L29.3,15.425l.257-3.856L31.1,9.255l3.855-4.37,5.4-2.314,4.626-1.028L45.746,0h1.542l.257,1.542h1.8l5.911.514,4.112.771,3.6,3.856,2.827,4.37,1.542,6.17v6.941h1.8V29.05l-1.028,1.285v4.113l7.71.257,2.827,10.026,8.481,3.342,1.8,3.856,6.425.514,6.168.514,8.224,3.6,6.168,2.828,4.883,3.856L124.9,67.1l4.626,5.142,1.542-1.028,7.453-4.628,6.168-1.028,5.14-1.543.514,8.484.514,6.684v6.427l4.112,2.314,6.425,3.342,9-.257,4.369,2.828,2.57,1.543,2.57,4.113,2.056,3.6.514,3.342-1.285,4.884-.257,5.142-1.285,4.37-.257,1.285-1.8,3.085.771,7.2-1.285,1.543L173.22,136l-2.056,4.113-1.285,4.113-2.57,1.543-2.056,2.828-2.056.771-2.313,2.828-3.6,1.028-3.6-.257-2.827-.514-2.57-2.057-3.6-1.8-.257.771v4.628l.257,4.37-.514,3.856-7.71,6.941-5.14,6.427.514,3.6.514,4.628-.771,7.455.257,9.769.257,23.137L131.842,227l-1.8-1.285.771-1.8v-8.741l-.257-8.227-.257-12.6-.771-8.484V176.1l-4.369,3.342-4.626,4.113-5.654,3.6-3.855,2.314v5.4l.771,8.227,2.57,5.4-2.313,2.314.514,17.224,1.285,12.34,1.542,9,.257,13.368.257,7.455-1.028,7.455.257,8.741.514,6.427,4.626,11.826,2.57,7.969,1.028,7.97.257,11.826L123.1,348.087l-1.028,16.453-.514,4.627,2.827.514-1.028,2.571,1.028,2.314-2.313,6.941.771,5.142-.514,7.2.514,9.255.514,5.656v4.113l-1.542,2.314Z" transform="translate(249.711 48.493)" fill="#fff"/>
        <path id="Фигура_2" data-name="Фигура 2" d="M1099.13,1677.073l20.93,1.692-.748,2.176.748,2.175-2.243,5.8.249,4.109-.249,7.493.249,5.559-.32,3.13-.257,5.913-2.056,2.057-4.112,2.057-9.949-1.554-7.973-4.593-5.98-4.593-6.478-4.351L1079.2,1701l.249-4.593.748-3.626,2.492-1.934,1.744-.484,2.492.725,1.744.242h2.242l1.495.242,2.99-1.209,1.744-.725v-2.659l.747-3.626,1-2.9Z" transform="translate(-809.44 -1257.869)" fill="#fff"/>
        <g id="Эллипс_1" data-name="Эллипс 1" fill="none">
          <path d="M256,0C397.385,0,512,114.615,512,256S397.385,512,256,512,0,397.385,0,256,114.615,0,256,0Z" stroke="none"/>
          <path d="M 256 20 C 125.8691711425781 20 20 125.8691711425781 20 256 C 20 386.1308288574219 125.8691711425781 492 256 492 C 386.1308288574219 492 492 386.1308288574219 492 256 C 492 125.8691711425781 386.1308288574219 20 256 20 M 256 0 C 397.3848266601562 0 512 114.6150817871094 512 256 C 512 397.3848266601562 397.3848266601562 512 256 512 C 114.6150817871094 512 0 397.3848266601562 0 256 C 0 114.6150817871094 114.6150817871094 0 256 0 Z" stroke="none" fill="#fff"/>
        </g>
        <path id="Фигура_3" data-name="Фигура 3" d="M452,1692l66.24-18,75.988-4.5,85.237-4.5,59.741,8.249,12,10-31.5,29.745-48.742,27.246-70.239,13.748-54.242-4.249-46.493-20-45.243-26Z" transform="translate(-339.018 -1248.814)" fill="#fff"/>
        <path id="Фигура_4" data-name="Фигура 4" d="M568.326,1141.434l-1.541,1.369-.342,1.541.514.685-.685.856-.171,1.712v3.424l.685,1.2,1.2,2.225,1.027,1.712.685,1.2-1.541,2.4-1.027,2.568-.342,2.225-1.2,2.4-1.883,3.081-1.541,2.225-.514,2.739-1.2,3.766-.342,4.793.171,3.937.514,2.91-1.883,2.91-1.541,2.054-1.027,4.108-.342,3.595v2.225l4.451,5.307,1.541,2.568.685,3.081,1.37,4.622,1.2,3.252,1.541,2.739,1.541,3.081,1.2,2.225,1.027,1.37,2.739,2.568,2.4,2.91,1.2,3.252,1.2,3.252,2.4,5.135,1.2,2.4-.514,2.91-.171,3.937.342,3.595,1.027,2.739-.171,2.054v3.937l-1.027,3.595-1.883,2.054-1.712.342-3.6.685-2.054,1.883-1.37,1.883-.685,1.541,1.027,1.2,1.883.342,1.712.171,2.226.514,2.4.685,1.883-.171,6.334-.171,13.867,1.027,13.353-.342,26.878,10.271,25.508-2.225h6.334l18.489-.342,34.582,2.225,14.38-7.361-3.6-8.9-1.37-6.676-2.226-5.649-4.451-4.108-9.929-3.937-8.217-.856-11.984,1.2-4.794.856-3.424-3.081-1.712-2.054-3.937-3.595-3.424-5.478-4.451-6.676-3.253-4.108-8.217-8.9-4.28-7.874-3.253-2.91-2.91-8.217-5.136-3.766L644,1199.635l-3.938-7.874-4.965-5.991-2.91-8.388-1.027-7.874-3.766-7.19-.514-9.244-2.226-6.847-2.739-3.595-2.054-2.739-1.712-2.739-1.2-1.541-.856-3.424-.685-3.252-.856-2.225-1.541-1.37-2.226-.342-1.541,1.541-1.027,2.054-1.541.856-1.37-.856-.342-2.225-1.2-1.369-2.054.342-1.37,1.2-1.2,1.541-.856.685-2.226.342-2.4-.171-3.6.685-1.883,1.883-3.938,3.424-2.568,2.739-1.37,2.568-1.712,1.883-2.739-.171-2.4-.513h-2.739l-1.883.342Z" transform="translate(-417.022 -843.794)" fill="#fff"/>
      </g>
    </g>
  </g>
</svg>
