<svg xmlns="http://www.w3.org/2000/svg" width="690" height="302" viewBox="0 0 690 302">
  <path id="Path_18" data-name="Path 18" d="M10.353-111H32.577v65.377h.9l9.761-14.512,15.767-18.7H83.633L57.354-48.765,86.636-.293H60.207L42.488-33.505,32.577-22.435V-.293H10.353ZM124.928,1.5A40.151,40.151,0,0,1,109.386-1.34,31.007,31.007,0,0,1,97.823-9.569,37.467,37.467,0,0,1,90.54-22.584a53.549,53.549,0,0,1-2.553-17.055A53.549,53.549,0,0,1,90.54-56.694a36.672,36.672,0,0,1,7.283-12.941,31.4,31.4,0,0,1,11.563-8.153,40.151,40.151,0,0,1,15.542-2.842,40.151,40.151,0,0,1,15.542,2.842,31.4,31.4,0,0,1,11.563,8.153,36.672,36.672,0,0,1,7.283,12.941,53.549,53.549,0,0,1,2.553,17.055,53.549,53.549,0,0,1-2.553,17.055,37.466,37.466,0,0,1-7.283,13.016A31.007,31.007,0,0,1,140.47-1.34,40.151,40.151,0,0,1,124.928,1.5Zm0-17.5q6.607,0,10.211-4.039t3.6-11.519V-47.568q0-7.48-3.6-11.519t-10.211-4.039q-6.607,0-10.211,4.039t-3.6,11.519V-31.56q0,7.48,3.6,11.519T124.928-16ZM193.252-.293,167.424-78.835h21.924l9.761,31.716,7.358,28.425h1.2l7.358-28.425,9.46-31.716h21.023L219.681-.293ZM305.424-78.835h20.723l-30.333,90.66q-3,9.126-8.484,13.464t-15.692,4.339H257.822v-17.2h14.866l2.7-8.677-27.63-82.581h22.074L281.4-42.182l5.706,22.74h.9l5.856-22.74ZM359.483-.293q-11.412,0-16.743-5.535t-5.331-16.008V-111h22.224v93.5h9.911v17.2Zm70.727-78.542h20.723L420.6,11.825q-3,9.126-8.484,13.464t-15.692,4.339H382.608v-17.2h14.866l2.7-8.677-27.63-82.581h22.074l11.563,36.653,5.706,22.74h.9l5.856-22.74ZM518.355-.293a14.01,14.01,0,0,1-9.986-3.74,17.176,17.176,0,0,1-5.03-10.023h-.9a18.158,18.158,0,0,1-7.959,11.594Q488.323,1.5,479.313,1.5q-11.863,0-18.17-6.263t-6.307-16.553q0-12.377,9.085-18.418t24.7-6.04h12.464V-50.71q0-5.685-3-9.051t-10.061-3.366q-6.607,0-10.511,2.842a28.166,28.166,0,0,0-6.457,6.433L457.84-65.586a34.482,34.482,0,0,1,12.088-11.058q7.283-3.987,19.746-3.987,16.818,0,25.227,7.331t8.409,21.393V-17.5h7.358v17.2ZM487.572-13.907a18.273,18.273,0,0,0,9.535-2.375q3.979-2.375,3.979-7.721v-9.2H490.275q-13.064,0-13.064,8.759v2.228q0,4.3,2.7,6.308T487.572-13.907ZM578.421,1.5a41.749,41.749,0,0,1-16.067-2.917,33.173,33.173,0,0,1-11.938-8.228,34.632,34.632,0,0,1-7.358-12.941,55.046,55.046,0,0,1-2.478-17.055,55.365,55.365,0,0,1,2.4-16.83,35.744,35.744,0,0,1,7.133-12.941,31.616,31.616,0,0,1,11.638-8.3A40.208,40.208,0,0,1,577.52-80.63a38.994,38.994,0,0,1,16.743,3.291,31.592,31.592,0,0,1,11.412,8.827,35.51,35.51,0,0,1,6.457,12.791,56.168,56.168,0,0,1,2.027,15.185v6.583H563.554v1.187q0,7.714,4.2,12.239T580.973-16q6.908,0,11.262-2.745a44.2,44.2,0,0,0,8.109-6.6l11.112,13.8a35.052,35.052,0,0,1-13.74,9.6A50.862,50.862,0,0,1,578.421,1.5Zm-.451-65.826q-6.757,0-10.586,4.413t-3.829,11.744v1.2h27.63v-1.346q0-7.181-3.229-11.594T577.97-64.324ZM645.243-.293,619.415-78.835h21.924L651.1-47.119l7.358,28.425h1.2l7.358-28.425,9.46-31.716H697.5L671.672-.293ZM62.31,146.86h-.6q-7.058,14.219-22.675,14.219a29.525,29.525,0,0,1-13.064-2.842,28.358,28.358,0,0,1-9.986-8.079,36.972,36.972,0,0,1-6.307-12.716A59.9,59.9,0,0,1,7.5,120.686a59.9,59.9,0,0,1,2.177-16.756,36.972,36.972,0,0,1,6.307-12.716,28.358,28.358,0,0,1,9.986-8.079,29.525,29.525,0,0,1,13.064-2.842,26.44,26.44,0,0,1,13.89,3.481,21.722,21.722,0,0,1,8.785,10.739h.6V48.577H74.323V159.284H62.31Zm-19.972,3.6a27.969,27.969,0,0,0,7.733-1.053,19.413,19.413,0,0,0,6.382-3.082,15.057,15.057,0,0,0,4.28-4.961,13.906,13.906,0,0,0,1.577-6.691V105.8a11.855,11.855,0,0,0-1.577-5.94,14.824,14.824,0,0,0-4.28-4.736,21.609,21.609,0,0,0-6.382-3.082,26.238,26.238,0,0,0-7.733-1.128q-10.211,0-16.067,6.39t-5.856,16.766V127.3q0,10.376,5.856,16.766T42.338,150.457Zm86.644,10.622a34.879,34.879,0,0,1-14.341-2.842,30.918,30.918,0,0,1-10.962-8.153,37.377,37.377,0,0,1-7.058-12.716,52.411,52.411,0,0,1-2.478-16.681,52.6,52.6,0,0,1,2.478-16.606,37.27,37.27,0,0,1,7.058-12.791,30.918,30.918,0,0,1,10.962-8.153,34.879,34.879,0,0,1,14.341-2.842,33.042,33.042,0,0,1,13.965,2.833,30.917,30.917,0,0,1,10.511,7.827,34.839,34.839,0,0,1,6.682,11.853,46.6,46.6,0,0,1,2.328,15.056v5.666H106.758v3.59a26.321,26.321,0,0,0,1.577,9.2,21.83,21.83,0,0,0,4.5,7.405,20.585,20.585,0,0,0,7.208,4.937,24.831,24.831,0,0,0,9.686,1.8,23.639,23.639,0,0,0,12.839-3.441,22.6,22.6,0,0,0,8.484-9.874l8.559,6.173A29.837,29.837,0,0,1,147.9,156.187Q139.944,161.079,128.982,161.079Zm0-70.763a22.965,22.965,0,0,0-9.01,1.71,20.232,20.232,0,0,0-6.983,4.832,22.656,22.656,0,0,0-4.58,7.36,25.382,25.382,0,0,0-1.652,9.294v1.04h42.8v-1.636q0-10.26-5.631-16.43T128.982,90.317Zm76.583,70.763q-10.812,0-18.095-4.114a41.115,41.115,0,0,1-12.539-11l8.559-6.882a33.653,33.653,0,0,0,10.061,8.752,26.293,26.293,0,0,0,12.914,3.067q7.658,0,11.938-3.291a11.925,11.925,0,0,0,1.351-16.98q-2.928-3.216-10.587-4.413l-6.157-.9a51.536,51.536,0,0,1-9.911-2.319,27.581,27.581,0,0,1-7.884-4.189,18.031,18.031,0,0,1-5.256-6.508,21.158,21.158,0,0,1-1.877-9.275,22.239,22.239,0,0,1,2.1-9.949,20.057,20.057,0,0,1,5.781-7.106,25.281,25.281,0,0,1,8.785-4.264,40.729,40.729,0,0,1,10.962-1.421q9.46,0,15.842,3.291a35.486,35.486,0,0,1,11.187,9.126l-7.959,7.181a23.854,23.854,0,0,0-7.508-6.508q-4.955-2.917-12.464-2.917t-11.337,3.216a10.828,10.828,0,0,0-3.829,8.752q0,5.685,3.829,8.228t11.037,3.74l6.007.9q12.914,1.945,18.32,7.405t5.406,14.287q0,11.22-7.658,17.653T205.565,161.079Zm55.861-97.093q-3.9,0-5.631-1.87a6.883,6.883,0,0,1-1.727-4.862V55.309a6.883,6.883,0,0,1,1.727-4.862q1.727-1.87,5.631-1.87t5.631,1.87a6.883,6.883,0,0,1,1.727,4.862v1.945a6.883,6.883,0,0,1-1.727,4.862Q265.33,63.986,261.426,63.986Zm-6.007,18.1h12.013v77.2H255.419Zm102.862,85.8q0,11.926-9.385,17.518T320.741,191q-18.17,0-26.128-4.931t-7.959-14.045q0-6.276,3.3-9.789a19.431,19.431,0,0,1,9.01-5.155v-1.643q-6.908-3.277-6.908-10.725,0-5.809,3.754-8.863a24.633,24.633,0,0,1,9.61-4.543v-.6a25.026,25.026,0,0,1-10.737-9.453A26.414,26.414,0,0,1,290.858,107a27.358,27.358,0,0,1,2.1-10.8,24.26,24.26,0,0,1,5.931-8.477,27.08,27.08,0,0,1,9.16-5.477,37.6,37.6,0,0,1,26.654,1.041V81.939a12.67,12.67,0,0,1,2.1-7.5q2.1-2.968,6.908-2.968h11.563V82.089H340.562v4.951a25.15,25.15,0,0,1,6.532,8.628A26.648,26.648,0,0,1,349.422,107a27.352,27.352,0,0,1-2.1,10.8,24.259,24.259,0,0,1-5.931,8.477,26.946,26.946,0,0,1-9.235,5.477A35.187,35.187,0,0,1,320.14,133.7a38.337,38.337,0,0,1-7.508-.748,25,25,0,0,0-7.058,3.067,6.324,6.324,0,0,0-3.153,5.61,4.559,4.559,0,0,0,3.3,4.638,25.574,25.574,0,0,0,8.559,1.2H330.8q14.416,0,20.948,5.442T358.281,167.891Zm-11.262.818a8.93,8.93,0,0,0-3.529-7.405q-3.529-2.768-12.539-2.768H305.124q-7.208,3.291-7.208,10.472a11.463,11.463,0,0,0,3.829,8.677q3.829,3.591,12.989,3.59h11.112q10.061,0,15.617-3.142A10.176,10.176,0,0,0,347.019,168.709ZM320.14,124.127q7.658,0,12.163-3.682t4.5-11.344v-4.208q0-7.662-4.5-11.344T320.14,89.868q-7.658,0-12.163,3.682t-4.5,11.344V109.1q0,7.663,4.5,11.344T320.14,124.127Zm52.107,35.157v-77.2H384.26V94.513h.6a25.188,25.188,0,0,1,8.034-10.368q5.181-3.851,13.89-3.851,12.013,0,19,7.7t6.983,21.767v49.519H420.749V111.757q0-20.842-17.569-20.842a27.012,27.012,0,0,0-6.983.9,20.333,20.333,0,0,0-6.082,2.7,13.361,13.361,0,0,0-4.28,4.572,12.977,12.977,0,0,0-1.577,6.523v53.675Z" transform="translate(-7.5 111)" fill="#fff"/>
</svg>
