<svg xmlns="http://www.w3.org/2000/svg" width="70.71" height="70.71" viewBox="0 0 70.71 70.71">
  <g id="Group_55" data-name="Group 55" transform="translate(-3063.645 -6323.645)">
    <path id="Rectangle_16" data-name="Rectangle 16" d="M0,0H25A25,25,0,0,1,50,25v0A25,25,0,0,1,25,50h0A25,25,0,0,1,0,25V0A0,0,0,0,1,0,0Z" transform="translate(3099 6394.355) rotate(-135)" fill="#ff6700"/>
    <g id="Group_28" data-name="Group 28" transform="translate(8086 5465)">
      <g id="small" transform="translate(-5002 879)">
        <path id="Фигура_1" data-name="Фигура 1" d="M6.776,24.312l-.617-.226-.452-.271L5.271,23.5l-.376-.256-.075-.211v-.271l.09-.271L5,22.444l.166-.045.226.045.2.03.316-.105.015-.271.075-.362.045-.437-.015-.331-.151-.422-.09-.467-.06-.708-.06-.542-.12-.557-.12-.6-.271-.437S5.013,16.74,5,16.705a1.773,1.773,0,0,0-.166-.2H4.668L4.141,16.4l-.3-.166-.09.437-.03.316-.075.256-.06.271-.015.241L3.7,18.5l.03.8-.045.678-.166.572-.03.362-.12.813-.015.452-.03.5-.015.422.03.331-.166.362-.09.015H2.846l-.256.03-.211-.03-.392-.121-.241-.166s-.16-.165-.151-.2.144-.212.09-.211l.075-.2.151.03.151-.346-.045-.618L2,21.133,1.9,20.124l-.015-.512s.031-.65.015-.678-.07-.549-.075-.587.06-.5.06-.5-.1-.337-.105-.362-.03-.331-.03-.331l.015-.452-.572-.12.03-.316-.03-.362V15.44l.03-.512L1.2,14.491l-.03-.241-.045-.3.03-.377v-.256l.03-.271.06-.271-.06-.045-.015-.166.045-.181v-.136l-.06-.015-.015.2-.06.211-.045.181.045.151-.015.3-.06.181.03.271-.015.241H.858l-.105-.09-.06-.15.015-.2-.166-.015v.271l.045.226.136.2.211.075.015.105.015.181-.3.015-.211-.136-.166-.09-.136-.332-.105-.407.03-.2.03-.452L.045,12.8v-.256L0,12.307l.06-.331.12-.105-.03-.2v-.286l.03-.256V10.8l.12-.422L.376,9.9l.181-.919L.5,8.963.482,8.857V8.511l.03-.226.015-.211.06-.331.03-.407.06-.407.105-.512L.859,6.1V5.845l.015-.286L.859,5.227l.075-.2.09-.271.136-.226.12-.2.151-.121.151-.151L1.687,3.9l.105-.166.135-.181.136-.2.105-.166.045-.105V2.982L2.184,2.8l-.03-.121-.03-.136-.09-.135L1.867,2.35l-.045-.135-.06-.136.015-.136-.06-.105-.03-.166.03-.105-.06-.12.105-.03L1.747,1.19,1.717.9,1.732.678l.09-.136L2.048.286,2.365.151,2.636.09,2.68,0h.09l.015.09h.105l.346.03.241.045L3.69.392l.166.256.09.362v.407h.105V1.7l-.06.075v.241l.452.015.166.587.5.2.105.226.376.03.361.03.482.211.361.166.286.226.241.226.271.3.09-.06L8.116,3.9l.361-.06.3-.09.03.5.03.392v.377l.241.136.376.2.527-.015.256.166.151.09.151.241.12.211.03.2-.075.286-.015.3-.075.256-.015.075-.105.181.045.422-.075.09-.226.12-.12.241-.075.241-.151.09-.12.166-.12.045-.136.166-.211.06L9,8.963l-.166-.03-.151-.121-.211-.105-.015.045v.271l.015.256-.03.226L8,9.912l-.3.377.03.211.03.271-.045.437.015.572.015,1.356-.015.165-.105-.075.045-.105v-.512l-.015-.482-.015-.738-.045-.5v-.572l-.256.2-.271.241-.331.211-.226.136v.316l.045.482.151.316-.136.136.03,1.009.075.723.09.527.015.783.015.437-.06.437.015.512.03.377.271.693.151.467.06.467.015.693-.06.919-.06.964-.03.271.166.03-.06.151.06.136-.136.407.045.3-.03.422.03.542.03.331v.241l-.09.136Z" transform="translate(14.632 2.841)" fill="#fff"/>
        <path id="Фигура_2" data-name="Фигура 2" d="M1080.368,1677.07l1.226.1-.044.127.044.127-.131.34.015.241-.015.439.015.326-.019.183-.015.346-.12.121-.241.12-.583-.091-.467-.269-.35-.269-.38-.255-.1-.184.015-.269.044-.212.146-.113.1-.028.146.042.1.014h.131l.088.014.175-.071.1-.042v-.156l.044-.213.059-.17Z" transform="translate(-1063.394 -1652.507)" fill="#fff"/>
        <g id="Эллипс_1" data-name="Эллипс 1">
          <path id="Path_13" data-name="Path 13" d="M15,0A15,15,0,1,1,0,15,15,15,0,0,1,15,0Z" fill="none"/>
          <path id="Path_14" data-name="Path 14" d="M15,1.172A13.828,13.828,0,1,0,28.828,15,13.844,13.844,0,0,0,15,1.172M15,0A15,15,0,1,1,0,15,15,15,0,0,1,15,0Z" fill="#fff"/>
        </g>
        <path id="Фигура_3" data-name="Фигура 3" d="M452,1666.582l3.881-1.055,4.452-.264,4.994-.264,3.5.483.7.586-1.846,1.743-2.856,1.6-4.116.806-3.178-.249-2.724-1.172-2.651-1.523Z" transform="translate(-445.38 -1640.614)" fill="#fff"/>
        <path id="Фигура_4" data-name="Фигура 4" d="M556.722,1125.968l-.09.08-.02.09.03.04-.04.05-.01.1v.2l.04.07.07.13.06.1.04.07-.09.141-.06.151-.02.13-.07.141-.11.181-.09.13-.03.161-.07.221-.02.281.01.231.03.171-.11.171-.09.12-.06.241-.02.211v.13l.261.311.09.15.04.181.08.271.07.191.09.16.09.181.07.13.06.08.16.15.141.171.07.191.07.191.141.3.07.141-.03.171-.01.231.02.211.06.161-.01.12v.231l-.06.211-.11.12-.1.02-.211.04-.12.11-.08.11-.04.09.06.07.11.02.1.01.13.03.141.04.11-.01.371-.01.813.06.782-.02,1.575.6,1.495-.13h.371l1.083-.02,2.026.13.843-.431-.211-.521-.08-.391-.13-.331-.261-.241-.582-.231-.481-.05-.7.07-.281.05-.2-.181-.1-.12-.231-.211-.2-.321-.261-.391-.191-.241-.482-.521-.251-.461-.191-.171-.171-.481-.3-.221-.361-.332-.231-.461-.291-.351-.17-.491-.06-.461-.221-.421-.03-.542-.13-.4-.161-.211-.12-.161-.1-.161-.07-.09-.05-.2-.04-.191-.05-.13-.09-.08-.13-.02-.09.09-.06.12-.09.05-.08-.05-.02-.13-.07-.08-.12.02-.08.07-.07.09-.05.04-.13.02-.141-.01-.211.04-.11.11-.231.2-.15.161-.08.15-.1.11-.161-.01-.141-.03h-.16l-.11.02Z" transform="translate(-547.857 -1108.528)" fill="#fff"/>
      </g>
    </g>
  </g>
</svg>
