<svg xmlns="http://www.w3.org/2000/svg" width="512" height="512" viewBox="0 0 512 512">
  <g id="Group_28" data-name="Group 28" transform="translate(5002 -879)">
    <g id="small" transform="translate(-5002 879)">
      <path id="Фигура_1" data-name="Фигура 1" d="M115.651,414.928l-10.537-3.856-7.71-4.628-7.453-5.4-6.425-4.37-1.285-3.6v-4.628l1.542-4.628,1.542-.771,2.827-.771,3.855.771,3.341.514,5.4-1.8.257-4.627,1.285-6.17.771-7.455-.257-5.656-2.57-7.2-1.542-7.97-1.028-12.083-1.028-9.255-2.056-9.512-2.056-10.283L87.895,294.1s-2.344-8.407-2.57-9A30.252,30.252,0,0,0,82.5,281.76H79.671l-9-1.8-5.14-2.828-1.542,7.455-.514,5.4-1.285,4.37-1.028,4.628L60.91,303.1l2.313,12.6.514,13.625-.771,11.569-2.827,9.769-.514,6.17-2.056,13.882-.257,7.712-.514,8.484-.257,7.2.514,5.656-2.827,6.17-1.542.257H48.573L44.2,406.7l-3.6-.514-6.682-2.057L29.812,401.3s-2.725-2.816-2.57-3.342c.162-.551,2.465-3.618,1.542-3.6l1.285-3.342,2.57.514,2.57-5.913-.771-10.54-.257-14.4-1.8-17.224-.257-8.741s.53-11.1.257-11.569-1.194-9.376-1.285-10.026,1.028-8.484,1.028-8.484-1.775-5.745-1.8-6.17-.514-5.656-.514-5.656l.257-7.712L20.3,283.046l.514-5.4-.514-6.17v-7.97l.514-8.741-.257-7.455-.514-4.113-.771-5.142.514-6.427v-4.37l.514-4.627L21.331,218l-1.028-.771-.257-2.828.771-3.085v-2.314l-1.028-.257-.257,3.342-1.028,3.6-.771,3.085.771,2.571-.257,5.142-1.028,3.085.514,4.628-.257,4.113H14.649l-1.8-1.543L11.822,234.2l.257-3.342L9.252,230.6v4.628l.771,3.856,2.313,3.342,3.6,1.285.257,1.8.257,3.085-5.14.257-3.6-2.314L4.883,245,2.57,239.342.771,232.4l.514-3.342.514-7.712L.771,218.519v-4.37L0,210.035l1.028-5.656,2.056-1.8-.514-3.342v-4.885l.514-4.37v-5.656l2.056-7.2L6.425,168.9,9.509,153.22l-1.028-.257-.257-1.8v-5.913l.514-3.856L9,137.8l1.028-5.656.514-6.941,1.028-6.941,1.8-8.741,1.285-5.4v-4.37l.257-4.885-.257-5.656,1.285-3.342,1.542-4.628,2.313-3.856,2.056-3.342,2.57-2.057,2.57-2.571,1.8-2.828,1.8-2.828L32.9,60.671l2.313-3.342,1.8-2.828.771-1.8V50.9l-.514-3.085-.514-2.057-.514-2.314L34.7,41.133,31.868,40.1,31.1,37.791l-1.028-2.314.257-2.314-1.028-1.8-.514-2.828.514-1.8L28.27,24.68l1.8-.514-.257-3.856L29.3,15.425l.257-3.856L31.1,9.255l3.855-4.37,5.4-2.314,4.626-1.028L45.746,0h1.542l.257,1.542h1.8l5.911.514,4.112.771,3.6,3.856,2.827,4.37,1.542,6.17v6.941h1.8V29.05l-1.028,1.285v4.113l7.71.257,2.827,10.026,8.481,3.342,1.8,3.856,6.425.514,6.168.514,8.224,3.6,6.168,2.828,4.883,3.856L124.9,67.1l4.626,5.142,1.542-1.028,7.453-4.628,6.168-1.028,5.14-1.543.514,8.484.514,6.684v6.427l4.112,2.314,6.425,3.342,9-.257,4.369,2.828,2.57,1.543,2.57,4.113,2.056,3.6.514,3.342-1.285,4.884-.257,5.142-1.285,4.37-.257,1.285-1.8,3.085.771,7.2-1.285,1.543L173.22,136l-2.056,4.113-1.285,4.113-2.57,1.543-2.056,2.828-2.056.771-2.313,2.828-3.6,1.028-3.6-.257-2.827-.514-2.57-2.057-3.6-1.8-.257.771v4.628l.257,4.37-.514,3.856-7.71,6.941-5.14,6.427.514,3.6.514,4.628-.771,7.455.257,9.769.257,23.137L131.842,227l-1.8-1.285.771-1.8v-8.741l-.257-8.227-.257-12.6-.771-8.484V176.1l-4.369,3.342-4.626,4.113-5.654,3.6-3.855,2.314v5.4l.771,8.227,2.57,5.4-2.313,2.314.514,17.224,1.285,12.34,1.542,9,.257,13.368.257,7.455-1.028,7.455.257,8.741.514,6.427,4.626,11.826,2.57,7.969,1.028,7.97.257,11.826L123.1,348.087l-1.028,16.453-.514,4.627,2.827.514-1.028,2.571,1.028,2.314-2.313,6.941.771,5.142-.514,7.2.514,9.255.514,5.656v4.113l-1.542,2.314Z" transform="translate(249.711 48.493)" fill="#fff"/>
      <path id="Фигура_2" data-name="Фигура 2" d="M1099.13,1677.073l20.93,1.692-.748,2.176.748,2.175-2.243,5.8.249,4.109-.249,7.493.249,5.559-.32,3.13-.257,5.913-2.056,2.057-4.112,2.057-9.949-1.554-7.973-4.593-5.98-4.593-6.478-4.351L1079.2,1701l.249-4.593.748-3.626,2.492-1.934,1.744-.484,2.492.725,1.744.242h2.242l1.495.242,2.99-1.209,1.744-.725v-2.659l.747-3.626,1-2.9Z" transform="translate(-809.44 -1257.869)" fill="#fff"/>
      <g id="Эллипс_1" data-name="Эллипс 1" fill="none">
        <path d="M256,0C397.385,0,512,114.615,512,256S397.385,512,256,512,0,397.385,0,256,114.615,0,256,0Z" stroke="none"/>
        <path d="M 256 20 C 125.8691711425781 20 20 125.8691711425781 20 256 C 20 386.1308288574219 125.8691711425781 492 256 492 C 386.1308288574219 492 492 386.1308288574219 492 256 C 492 125.8691711425781 386.1308288574219 20 256 20 M 256 0 C 397.3848266601562 0 512 114.6150817871094 512 256 C 512 397.3848266601562 397.3848266601562 512 256 512 C 114.6150817871094 512 0 397.3848266601562 0 256 C 0 114.6150817871094 114.6150817871094 0 256 0 Z" stroke="none" fill="#fff"/>
      </g>
      <path id="Фигура_3" data-name="Фигура 3" d="M452,1692l66.24-18,75.988-4.5,85.237-4.5,59.741,8.249,12,10-31.5,29.745-48.742,27.246-70.239,13.748-54.242-4.249-46.493-20-45.243-26Z" transform="translate(-339.018 -1248.814)" fill="#fff"/>
      <path id="Фигура_4" data-name="Фигура 4" d="M568.326,1141.434l-1.541,1.369-.342,1.541.514.685-.685.856-.171,1.712v3.424l.685,1.2,1.2,2.225,1.027,1.712.685,1.2-1.541,2.4-1.027,2.568-.342,2.225-1.2,2.4-1.883,3.081-1.541,2.225-.514,2.739-1.2,3.766-.342,4.793.171,3.937.514,2.91-1.883,2.91-1.541,2.054-1.027,4.108-.342,3.595v2.225l4.451,5.307,1.541,2.568.685,3.081,1.37,4.622,1.2,3.252,1.541,2.739,1.541,3.081,1.2,2.225,1.027,1.37,2.739,2.568,2.4,2.91,1.2,3.252,1.2,3.252,2.4,5.135,1.2,2.4-.514,2.91-.171,3.937.342,3.595,1.027,2.739-.171,2.054v3.937l-1.027,3.595-1.883,2.054-1.712.342-3.6.685-2.054,1.883-1.37,1.883-.685,1.541,1.027,1.2,1.883.342,1.712.171,2.226.514,2.4.685,1.883-.171,6.334-.171,13.867,1.027,13.353-.342,26.878,10.271,25.508-2.225h6.334l18.489-.342,34.582,2.225,14.38-7.361-3.6-8.9-1.37-6.676-2.226-5.649-4.451-4.108-9.929-3.937-8.217-.856-11.984,1.2-4.794.856-3.424-3.081-1.712-2.054-3.937-3.595-3.424-5.478-4.451-6.676-3.253-4.108-8.217-8.9-4.28-7.874-3.253-2.91-2.91-8.217-5.136-3.766L644,1199.635l-3.938-7.874-4.965-5.991-2.91-8.388-1.027-7.874-3.766-7.19-.514-9.244-2.226-6.847-2.739-3.595-2.054-2.739-1.712-2.739-1.2-1.541-.856-3.424-.685-3.252-.856-2.225-1.541-1.37-2.226-.342-1.541,1.541-1.027,2.054-1.541.856-1.37-.856-.342-2.225-1.2-1.369-2.054.342-1.37,1.2-1.2,1.541-.856.685-2.226.342-2.4-.171-3.6.685-1.883,1.883-3.938,3.424-2.568,2.739-1.37,2.568-1.712,1.883-2.739-.171-2.4-.513h-2.739l-1.883.342Z" transform="translate(-417.022 -843.794)" fill="#fff"/>
    </g>
  </g>
</svg>
